<mxfile host="app.diagrams.net" modified="2023-07-05T15:56:16.623Z" agent="Mozilla/5.0 (Macintosh; Intel Mac OS X 10_15_7) AppleWebKit/537.36 (KHTML, like Gecko) Chrome/114.0.0.0 Whale/3.21.192.18 Safari/537.36" version="21.5.2" etag="SGwlTSPPIs2xhRiZ89tc" type="github">
  <diagram name="페이지-1" id="nbbq7Ev7jBNJndaSUE1V">
    <mxGraphModel>
      <root>
        <mxCell id="0" />
        <mxCell id="1" parent="0" />
      </root>
    </mxGraphModel>
  </diagram>
</mxfile>
